<svg width="24" height="24" viewBox="0 0 24 24" fill="none" xmlns="http://www.w3.org/2000/svg">
<path d="M3.00297 12.3565C3.29568 12.6496 3.29539 13.1244 3.00232 13.4171L2.84853 13.5708C2.71716 13.702 2.71716 13.9143 2.84853 14.0455C2.9804 14.1772 3.19458 14.1772 3.32646 14.0455L5.0182 12.3558C5.31127 12.0631 5.78614 12.0634 6.07886 12.3565C6.37157 12.6496 6.37128 13.1244 6.07821 13.4171L4.38647 15.1068C3.66896 15.8235 2.50602 15.8235 1.78851 15.1068C1.0705 14.3897 1.0705 13.2266 1.78851 12.5094L1.94231 12.3558C2.23538 12.0631 2.71025 12.0634 3.00297 12.3565Z" fill="white"/>
<path d="M7.85705 13.3528C8.14994 13.6456 8.14994 14.1205 7.85705 14.4134L5.74014 16.5303C5.44725 16.8232 4.97238 16.8232 4.67948 16.5303C4.38659 16.2374 4.38659 15.7626 4.67948 15.4697L6.79639 13.3528C7.08928 13.0599 7.56415 13.0599 7.85705 13.3528Z" fill="white"/>
<path d="M10.6328 16.1251C10.9257 16.418 10.9257 16.8929 10.6328 17.1857L8.53033 19.2882C8.23744 19.5811 7.76256 19.5811 7.46967 19.2882C7.17678 18.9953 7.17678 18.5204 7.46967 18.2275L9.5721 16.1251C9.86499 15.8322 10.3399 15.8322 10.6328 16.1251Z" fill="white"/>
<path d="M7.47223 16.5209C7.76184 16.8171 7.75656 17.2919 7.46042 17.5815L5.75085 19.2535C5.45472 19.5431 4.97987 19.5378 4.69026 19.2417C4.40064 18.9455 4.40592 18.4707 4.70206 18.1811L6.41163 16.5091C6.70777 16.2195 7.18261 16.2248 7.47223 16.5209Z" fill="white"/>
<path d="M11.6063 17.9261C11.8991 18.2192 11.8988 18.694 11.6057 18.9868L9.91396 20.6764C9.78259 20.8076 9.78259 21.02 9.91396 21.1512C10.0458 21.2829 10.26 21.2829 10.3919 21.1512L10.5457 20.9976C10.8388 20.7049 11.3136 20.7052 11.6063 20.9982C11.8991 21.2913 11.8988 21.7662 11.6057 22.0589L11.4519 22.2125C10.7344 22.9291 9.57145 22.9291 8.85394 22.2125C8.13593 21.4954 8.13593 20.3323 8.85394 19.6151L10.5457 17.9254C10.8388 17.6327 11.3136 17.633 11.6063 17.9261Z" fill="white"/>
<path fill-rule="evenodd" clip-rule="evenodd" d="M17.992 1.24993L18.1257 1.24999L18.6709 1.24999C19.4245 1.24995 20.064 1.24992 20.5742 1.31822C21.1169 1.39088 21.6242 1.55294 22.0343 1.96136C22.4449 2.37022 22.6082 2.87662 22.6814 3.41856C22.7501 3.92719 22.75 4.56462 22.75 5.31453L22.75 5.858L22.7501 5.99192C22.7506 6.8929 22.7511 7.55265 22.4995 8.15733C22.2482 8.76169 21.7798 9.22745 21.1396 9.86415L21.0445 9.95877L18.7785 12.2152L18.8178 12.2758C19.1587 12.8016 19.4379 13.2323 19.64 13.6047C19.8504 13.9924 20.0034 14.3623 20.0648 14.7748C20.1625 15.4308 20.0741 16.1045 19.8157 16.7227C19.7171 16.9586 19.549 17.201 19.3822 17.4158C19.2064 17.6423 18.9922 17.888 18.7635 18.1369C18.3085 18.632 17.7629 19.1754 17.2803 19.656L17.2733 19.663L17.2001 19.7358C16.5258 20.4073 15.356 20.1912 14.9951 19.2871C14.7962 18.7888 14.7185 18.5975 14.6218 18.4213C14.5313 18.2567 14.4276 18.0996 14.3115 17.9517C14.1891 17.7957 14.0459 17.6508 13.6778 17.2842L13.2548 16.9137C13.1838 16.9213 13.1119 16.9252 13.0389 16.9252C12.46 16.9252 11.9864 16.683 11.5504 16.3518C11.1409 16.0407 10.6885 15.5901 10.1559 15.0596L8.88948 13.7986C8.35683 13.2683 7.90436 12.8177 7.5919 12.4099C7.25931 11.9758 7.01482 11.5027 7.01482 10.9233C7.01482 10.8359 7.02042 10.7501 7.03134 10.6657L6.34386 9.98116C6.30157 9.93905 6.28523 9.9228 6.26917 9.90723C5.95301 9.60084 5.58096 9.35708 5.17285 9.18915C5.15212 9.18061 5.13067 9.17211 5.07507 9.1501L4.74565 9.01973C3.79897 8.64507 3.54286 7.42322 4.26681 6.70234L4.27379 6.69538C4.75643 6.21478 5.30209 5.67144 5.79928 5.21843C6.04927 4.99065 6.29596 4.77745 6.52336 4.60239C6.73915 4.43627 6.98217 4.26916 7.21827 4.17132C7.83797 3.91451 8.51283 3.82678 9.1698 3.92375C9.5826 3.98468 9.95325 4.13658 10.3423 4.34599C10.7162 4.5472 11.1486 4.82517 11.6768 5.16472L11.7425 5.20696L14.012 2.947L14.1066 2.85281C14.7465 2.21474 15.2139 1.74873 15.8199 1.49877C16.4256 1.24894 17.0864 1.24936 17.992 1.24993ZM17.6921 13.297C17.9734 13.7322 18.1754 14.0507 18.3217 14.3203C18.4875 14.6258 18.5554 14.8222 18.5812 14.9956C18.6374 15.373 18.5878 15.7708 18.4317 16.1443C18.4128 16.1897 18.3465 16.3038 18.1974 16.4959C18.0573 16.6764 17.8739 16.8881 17.6589 17.122C17.2539 17.5628 16.7662 18.0509 16.3015 18.5138C16.1635 18.1696 16.0627 17.929 15.9366 17.6993C15.8068 17.4631 15.658 17.2378 15.4916 17.0257C15.3039 16.7865 15.0892 16.5727 14.7525 16.2376L14.7163 16.2015C14.75 16.1734 14.7836 16.1449 14.8171 16.1161C15.1468 15.8317 15.516 15.464 15.9405 15.0412L17.6921 13.297ZM18.1257 2.74999C17.0287 2.74999 16.6883 2.76317 16.3919 2.88544C16.0958 3.00758 15.8462 3.23742 15.0705 4.0099L9.98374 9.07519C9.54925 9.50785 9.22322 9.83305 8.97823 10.1123C8.73189 10.3931 8.6135 10.5773 8.55796 10.7153C8.52633 10.7938 8.51482 10.8585 8.51482 10.9233C8.51482 11.0409 8.55194 11.1966 8.78258 11.4976C9.02638 11.8158 9.40545 12.1955 9.98374 12.7714L10.0519 12.8393L11.3149 11.5816C11.6084 11.2893 12.0833 11.2903 12.3756 11.5839C12.6679 11.8774 12.6669 12.3522 12.3733 12.6445L11.1148 13.8977L11.1785 13.9612C11.7568 14.537 12.1382 14.9145 12.4578 15.1574C12.76 15.387 12.9179 15.4252 13.0389 15.4252C13.1008 15.4252 13.1612 15.415 13.2315 15.3892C13.3677 15.3391 13.5518 15.2266 13.8373 14.9802C14.1217 14.735 14.4536 14.4051 14.8994 13.9612L19.9861 8.89587C20.7622 8.12303 20.9924 7.87497 21.1146 7.58123C21.2366 7.28784 21.25 6.95104 21.25 5.858L21.25 5.36518C21.25 4.55071 21.2484 4.01562 21.1949 3.61927C21.1443 3.24482 21.0602 3.10822 20.9759 3.02426C20.8911 2.93986 20.7527 2.8555 20.3751 2.80496C19.9763 2.75157 19.4382 2.74999 18.6206 2.74999H18.1257ZM18.3474 5.63275C17.3949 4.68425 15.8519 4.68425 14.8994 5.63275C13.9451 6.58299 13.9451 8.12495 14.8994 9.07519C15.8519 10.0237 17.3949 10.0237 18.3474 9.07519C19.3016 8.12495 19.3016 6.58299 18.3474 5.63275ZM15.9578 6.69565C16.325 6.32996 16.9217 6.32996 17.289 6.69565C17.6545 7.05959 17.6545 7.64835 17.289 8.0123C16.9217 8.37799 16.325 8.37799 15.9578 8.0123C15.5923 7.64835 15.5923 7.05959 15.9578 6.69565ZM10.6542 6.29069C10.2199 6.01224 9.9013 5.81206 9.63147 5.66684C9.3244 5.50158 9.12633 5.43359 8.95076 5.40767C8.56998 5.35147 8.16887 5.40108 7.79253 5.55704C7.74625 5.57622 7.63125 5.6425 7.43837 5.79099C7.25709 5.93054 7.04446 6.11315 6.80953 6.32721C6.36887 6.72872 5.88119 7.2118 5.41817 7.67269L5.62705 7.75536L5.63208 7.75735C5.68116 7.77677 5.71245 7.78915 5.74367 7.802C6.32744 8.04223 6.86009 8.39109 7.31306 8.83006C7.33737 8.85362 7.36126 8.87742 7.39886 8.91485L7.73886 9.25343C7.77541 9.20973 7.81273 9.16629 7.85067 9.12305C8.13281 8.80146 8.49446 8.44134 8.90924 8.02831L10.6542 6.29069Z" fill="white"/>
</svg>
